<svg xmlns="http://www.w3.org/2000/svg" width="20" height="20"><rect width="20" height="20" fill="#00c300" rx="6"/><path fill="#fff" d="M12.807 12.037a1.36 1.36 0 01.226-1.7l1.864-1.87a.079.079 0 01.11 0 1.129 1.129 0 001.576-1.58l-3.414-3.431a1.129 1.129 0 00-1.575 1.575.079.079 0 010 .11L9.732 7.027a1.36 1.36 0 01-1.7.226 2.4 2.4 0 00-3.067.278l-.62.62a.525.525 0 000 .74l3.051 3.041-3.791 3.777a.525.525 0 00.74.74l3.787-3.782 3.041 3.041a.525.525 0 00.74 0l.62-.62a2.4 2.4 0 00.274-3.051zm-1.266 2.568L5.455 8.518l.247-.247a1.349 1.349 0 011.722-.158 2.389 2.389 0 003.041-.347l1.867-1.863a1.129 1.129 0 000-1.575.079.079 0 01.11-.11l3.413 3.413a.079.079 0 01-.11.11 1.129 1.129 0 00-1.575 0l-1.867 1.864a2.389 2.389 0 00-.347 3.041 1.349 1.349 0 01-.158 1.722z"/><path fill="#fff" d="M4.804 8.679c.131.033 6.79 6.788 6.79 6.788 0-.03.859-1.273.859-1.273v-1.422l-.37-1.7.565-.915 2.071-2.149h1.453v-.555l-3.719-3.846-.648.15-.211.449.489 1.025-2.737 2.774H8.152l-1.938-.552-.91.552z" opacity=".4"/></svg>