<svg xmlns="http://www.w3.org/2000/svg" width="110" height="110"><defs><style>.cls-2{fill:#ff977b}.cls-3{fill:#ed4850}.cls-5{fill:#1b89e5}.cls-7{fill:#fff}</style></defs><g id="img_demonstration" transform="translate(-560 -625)"><circle id="타원_885" cx="55" cy="55" r="55" fill="#f2f2f2" transform="translate(560 625)"/><g id="testing" transform="translate(571.765 639.09)"><path id="패스_33261" d="M21.481 74.833a9.181 9.181 0 01-8.375 5.348q-.387 0-.8-.021a5.836 5.836 0 01-.457-.042 1.157 1.157 0 01-.217-.021 5.68 5.68 0 01-.522-.065 11.277 11.277 0 01-1.231-.245c-.126-.035-.252-.065-.384-.1a7.464 7.464 0 01-.56-.181 5.984 5.984 0 01-.322-.119.941.941 0 01-.181-.07 6.644 6.644 0 01-.413-.175c-.16-.07-.314-.147-.468-.224a8.749 8.749 0 01-.923-.565 6.6 6.6 0 01-.706-.552 10.912 10.912 0 01-3.236-8.663c.265-5.431 4.166-12.065 11.283-13.183 0 0 2.279 1.043 3.078 1.34a25.2 25.2 0 003.313 1c1.447.378 1.846 1.93 1.7 4.435-.32 5.557.673 9.317-.579 12.103z" class="cls-2" transform="translate(0 -14.168)"/><path id="패스_33262" d="M15.84 73.545a.652.652 0 01-.316-1.223 7.814 7.814 0 002.99-3.23.652.652 0 011.143.629 9.072 9.072 0 01-3.5 3.742.652.652 0 01-.317.082z" class="cls-3" transform="translate(-4.352 -18.62)"/><rect id="사각형_21393" width="59.35" height="47.125" fill="#3c3854" rx="6" transform="translate(13.836 15.222)"/><rect id="사각형_21394" width="53.723" height="41.082" class="cls-5" rx="3" transform="translate(16.65 18.244)"/><path id="패스_33267" fill="#fff" d="M74.936 44.282H31.752c-.36 0-.652-.133-.652-.3s.292-.3.652-.3H74.94c.36 0 .652.133.652.3s-.292.3-.652.3z" opacity=".5" transform="translate(-9.886 -8.192)"/><path id="패스_33269" d="M23.571 75.706a9.181 9.181 0 01-8.371 5.348q-.387 0-.8-.021a5.836 5.836 0 01-.457-.042 1.157 1.157 0 01-.217-.021q-.261-.02-.522-.065a11.279 11.279 0 01-1.231-.245c-.126-.035-.252-.065-.384-.1a7.464 7.464 0 01-.56-.181 5.984 5.984 0 01-.322-.119.99.99 0 01-.181-.07 6.644 6.644 0 01-.413-.175c-.16-.07-.314-.147-.468-.224a8.751 8.751 0 01-.923-.566 11.273 11.273 0 01.4-4.047 9.946 9.946 0 012.778-3.431c1.461-1.321 2.935-2.391 2.935-2.391 2.209-1.286 3.314-4.753 4.3-7.689.552-1.622 1.866-2.87 3.313-2.5s1.846 1.93 1.7 4.435c-.318 5.562.674 9.322-.577 12.104z" class="cls-2" transform="translate(-2.09 -15.263)"/><g id="그룹_46953" transform="translate(0 1)"><rect id="사각형_21395" width="5.043" height="5.385" class="cls-7" rx="2.521" transform="translate(25.004 38.123)"/><rect id="사각형_21396" width="5.043" height="5.385" class="cls-7" rx="2.521" transform="translate(35.457 38.123)"/><rect id="사각형_21397" width="5.043" height="5.385" class="cls-7" rx="2.521" transform="translate(45.908 38.123)"/><rect id="사각형_21398" width="5.043" height="5.385" class="cls-7" rx="2.521" transform="translate(57.026 38.123)"/><rect id="사각형_21399" width="5.043" height="5.385" class="cls-7" rx="2.521" transform="translate(24.898 47.857)"/><rect id="사각형_21400" width="5.043" height="5.385" class="cls-7" rx="2.521" transform="translate(35.35 47.857)"/><rect id="사각형_21401" width="5.043" height="5.385" class="cls-7" rx="2.521" transform="translate(45.803 47.857)"/><rect id="사각형_21402" width="5.043" height="5.385" class="cls-7" rx="2.521" transform="translate(56.92 47.857)"/><path id="패스_33263" d="M72.518 55.144a1.379 1.379 0 01-.978-.4l-.44-.444a.652.652 0 01.922-.92l.443.443a.078.078 0 00.111 0l1.4-1.4a.652.652 0 11.922.922l-1.4 1.4a1.379 1.379 0 01-.98.399z" class="cls-5" transform="translate(-23.739 -12.87)"/><path id="패스_33264" d="M40.29 70.072a1.375 1.375 0 01-.978-.4l-.443-.443a.652.652 0 11.922-.922l.443.444a.079.079 0 00.112 0l1.4-1.4a.652.652 0 11.923.922l-1.4 1.4a1.378 1.378 0 01-.979.399z" class="cls-5" transform="translate(-12.522 -18.062)"/><path id="패스_33265" d="M56.317 70.072a1.379 1.379 0 01-.978-.4l-.441-.444a.652.652 0 11.922-.922l.443.444a.078.078 0 00.111 0l1.4-1.4a.652.652 0 11.922.922l-1.4 1.4a1.381 1.381 0 01-.978.4z" class="cls-5" transform="translate(-18.097 -18.062)"/><path id="패스_33266" d="M89.389 70.071a1.382 1.382 0 01-.978-.4l-.443-.444a.652.652 0 01.923-.922l.443.443a.078.078 0 00.11 0l1.4-1.4a.653.653 0 01.924.922l-1.4 1.4a1.378 1.378 0 01-.978.4z" class="cls-5" transform="translate(-29.599 -18.062)"/><path id="패스_33273" d="M40.453 55.142a1.381 1.381 0 01-.978-.4l-.443-.443a.652.652 0 11.922-.922l.443.444a.078.078 0 00.11 0l1.4-1.4a.652.652 0 11.922.922l-1.4 1.4a1.381 1.381 0 01-.978.4z" class="cls-5" transform="translate(-12.579 -12.869)"/></g><g id="Layer_2" transform="translate(35.844 20.166)"><g id="Layer_1"><ellipse id="타원_893" cx="6.158" cy="6.146" fill="#00c300" rx="6.158" ry="6.146" transform="translate(.803 .889)"/><path id="패스_33260" d="M12.845 6.74h-.56c-1.12 0-3.8.162-4.736 1.648a2.71 2.71 0 00-.078 2.469A11.42 11.42 0 019.817 8.88a.286.286 0 01.386.078 8.353 8.353 0 00-3.14 3.631.435.435 0 000 .274.4.4 0 00.4.291h.062a.559.559 0 00.515-.52 3.124 3.124 0 01.313-1.05 5.21 5.21 0 00.845.073c1.383 0 3.717-.609 3.823-4.671v-.05a.2.2 0 00-.176-.196z" class="cls-7" transform="translate(-2.867 -2.628)"/><path id="사각형_21392" fill="none" d="M0 0h13.425v13.398H0z"/></g></g><g id="그룹_46954"><path id="패스_33270" d="M109.192 83.62c-2.692-3.848-5.173-4.331-5.7-4.45a5.1 5.1 0 00-2.432.141 2.731 2.731 0 00-1.28-.579 4.006 4.006 0 00-3.158.848 10.453 10.453 0 00-.736.778c-1.37-2.221-3.4-5.589-4.2-7.346a1.992 1.992 0 00-3.367-.13c-2.409 3.022 3.282 11.106 4.37 13.891a4.441 4.441 0 01.382 1.857c-.086 1.539-1.636 1.744-3.174 1.664-2.022-.112-5.9-.442-5.833 2.906a2.512 2.512 0 00.236 1.07c1.012 2.156 5.111 1.85 8.075 3.065 3.135 1.28 10.1 2.556 14.651-1.3 4.254-3.609 4.715-8.76 2.166-12.415z" class="cls-2" transform="translate(-28.309 -19.756)"/><path id="패스_33271" d="M103.214 87.3a.652.652 0 01-.551-.3s-.574-.9-1.358-2.178a.652.652 0 011.109-.683c.777 1.265 1.347 2.159 1.348 2.161a.652.652 0 01-.55 1z" class="cls-3" transform="translate(-34.278 -23.873)"/><path id="패스_33272" d="M110.555 84.7a.652.652 0 01-.623-.457 1.861 1.861 0 00-.575-.892.653.653 0 11.842-1 3.142 3.142 0 01.978 1.5.652.652 0 01-.43.816.64.64 0 01-.192.029z" class="cls-3" transform="translate(-37.025 -23.296)"/></g></g></g></svg>