<svg xmlns="http://www.w3.org/2000/svg" width="110" height="110"><defs><style>.cls-3{fill:#e8e2e2}.cls-6{fill:#fff}.cls-7{fill:#78c5ef}</style></defs><g id="img_management" transform="translate(-912 -625)"><circle id="타원_839" cx="55" cy="55" r="55" fill="#f2f2f2" transform="translate(912 625)"/><g id="나의사업관리" transform="translate(924.526 642.632)"><g id="그룹_46952" transform="translate(10.474 10.368)"><path id="패스_33254" fill="#d3cdcd" d="M67.357 104.627H46.844l1.861-16.758H65.5z" transform="translate(-25.101 -41.627)"/><rect id="사각형_21386" width="64" height="45.276" class="cls-3" rx="3.175" transform="translate(0 5.487)"/><path id="사각형_21387" fill="#332c44" d="M0 0h58.791v30.545H0z" transform="translate(2.587 8.154)"/><path id="패스_33255" fill="#1b89e5" d="M32.257 10.368h36.86a1.4 1.4 0 011.4 1.4v37.3H30.855v-37.3a1.4 1.4 0 011.402-1.4z" transform="translate(-18.67 -10.368)"/><path id="패스_33256" d="M61.717 22.34h-1.238a1.792 1.792 0 00-1.79 1.786v.307a.386.386 0 01-.386.385H58a1.792 1.792 0 00-1.793 1.782v1.237A1.792 1.792 0 0058 29.627h.3a.386.386 0 01.386.385v.307a1.792 1.792 0 001.79 1.786h1.238a1.792 1.792 0 001.789-1.786v-.306a.386.386 0 01.386-.385h.31a1.792 1.792 0 001.789-1.786v-1.236a1.792 1.792 0 00-1.79-1.784h-.31a.386.386 0 01-.386-.385v-.309a1.792 1.792 0 00-1.789-1.786z" class="cls-6" transform="translate(-28.866 -15.197)"/><rect id="사각형_21388" width="22.437" height="1.47" class="cls-7" rx=".735" transform="translate(16.789 22.2)"/><rect id="사각형_21389" width="22.437" height="1.47" class="cls-7" rx=".735" transform="translate(16.789 27.523)"/><rect id="사각형_21390" width="22.437" height="1.47" class="cls-7" rx=".735" transform="translate(16.789 32.847)"/><path id="패스_33257" d="M82.648 49.073a1.463 1.463 0 01-1.037-.428l-.545-.544a.567.567 0 01.8-.8l.545.544a.333.333 0 00.468 0l1.725-1.723a.567.567 0 01.8.8l-1.725 1.722a1.463 1.463 0 01-1.031.429z" class="cls-6" transform="translate(-38.797 -24.722)"/><path id="패스_33258" d="M82.648 57.449a1.46 1.46 0 01-1.037-.428l-.545-.544a.567.567 0 11.8-.8l.545.544a.333.333 0 00.468 0l1.728-1.721a.567.567 0 11.8.8l-1.725 1.721a1.46 1.46 0 01-1.034.428z" class="cls-6" transform="translate(-38.797 -28.101)"/><path id="패스_33259" d="M82.648 65.826a1.463 1.463 0 01-1.037-.427l-.545-.545a.567.567 0 01.8-.8l.545.544a.333.333 0 00.468 0l1.725-1.722a.567.567 0 11.8.8l-1.72 1.724a1.463 1.463 0 01-1.036.426z" class="cls-6" transform="translate(-38.797 -31.48)"/><rect id="사각형_21391" width="30.332" height="3.145" class="cls-3" rx="1.572" transform="translate(16.789 60.855)"/></g><g id="Layer_2" transform="translate(34.738 14.771)"><g id="Layer_1"><ellipse id="타원_893" cx="6.576" cy="6.563" fill="#00c300" rx="6.576" ry="6.563" transform="translate(.858 .949)"/><path id="패스_33260" d="M13.24 6.74h-.6c-1.2 0-4.059.173-5.058 1.76a2.9 2.9 0 00-.082 2.637A12.2 12.2 0 0110 9.025a.305.305 0 01.413.084 8.921 8.921 0 00-3.354 3.878.465.465 0 000 .292.43.43 0 00.43.31h.071a.6.6 0 00.55-.555 3.336 3.336 0 01.335-1.122 5.565 5.565 0 00.9.078c1.477 0 3.97-.65 4.083-4.988v-.053a.215.215 0 00-.188-.209z" class="cls-6" transform="translate(-2.583 -2.348)"/><path id="사각형_21392" fill="none" d="M0 0h14.337v14.309H0z"/></g></g></g></g></svg>