<svg xmlns="http://www.w3.org/2000/svg" width="155.346" height="34"><defs><clipPath id="clip-path"><path id="사각형_22519" data-name="사각형 22519" transform="translate(42.264 228.096)" d="M0 0h36v16H0z" stroke="#707070" fill="#39454d"/></clipPath><style>.cls-2,.cls-7{fill:#39454d}.cls-3{isolation:isolate}.cls-4{fill:#ededed}.cls-7{opacity:.5}</style></defs><g id="logo_footer" transform="translate(-242.278)"><g id="그룹_56350" data-name="그룹 56350" transform="translate(319.014 -228.096)"><g id="그룹_56353" data-name="그룹 56353" transform="translate(0 -228)"><rect id="사각형_22511" data-name="사각형 22511" class="cls-2" width="78" height="34" rx="4" transform="translate(-76.736 456.096)"/><g id="전북김제" class="cls-3" transform="translate(-71.736 460.596)"><g id="그룹_56352" data-name="그룹 56352" class="cls-3"><path id="패스_42441" data-name="패스 42441" class="cls-4" d="M-59.171 489.534h-3.478l1.922-7.053a3.147 3.147 0 012.044-2.361v-2.047h-3.325V474.8h10.251v3.274h-3.417v2.047a3.292 3.292 0 012.074 2.359l1.861 7.053h-3.508l-1.464-5.542a1.133 1.133 0 00-.2-.488.532.532 0 00-.442-.173h-.153a.51.51 0 00-.427.157 1.456 1.456 0 00-.214.5zm2.074 9.949q-3.783 0-3.783-3.715V491.3h3.48v3.684a1.315 1.315 0 00.275.976 1.391 1.391 0 00.946.252h6.437v-11.937h-2.349v-3.432h2.349v-6.234h3.508v24.874z" transform="translate(62.649 -474.609)"/><path id="패스_42442" data-name="패스 42442" class="cls-4" d="M29.814 491.895v-1.008h-6.468v-3.432h16.413v3.432h-6.437v1.008h1.434a3.862 3.862 0 012.791.929 3.754 3.754 0 01.961 2.818v3.967H35V496.9a1.752 1.752 0 00-.427-1.354 1.937 1.937 0 00-1.312-.378h-8.512v-3.275zm-1.8-14.547h7.047v-2.739h3.509v7.651a4.584 4.584 0 01-.4 2.031 3.443 3.443 0 01-1.037 1.275 3.726 3.726 0 01-1.465.645 8.268 8.268 0 01-1.708.173h-4.79a8.487 8.487 0 01-1.724-.173 3.721 3.721 0 01-1.479-.645 3.437 3.437 0 01-1.037-1.275 4.576 4.576 0 01-.4-2.031v-7.651h3.478zm7.047 3.117h-7.048v1.259q0 .913.412 1.134a2.614 2.614 0 001.2.22h3.844a2.533 2.533 0 001.175-.22q.412-.22.412-1.134z" transform="translate(-5.499 -474.609)"/><path id="패스_42443" data-name="패스 42443" class="cls-4" d="M109.927 474.8a3.674 3.674 0 012.624.866 3.786 3.786 0 01.915 2.85v10.453h-3.478v-9.039a1.7 1.7 0 00-.427-1.323 1.939 1.939 0 00-1.312-.378h-3.173V474.8zm9.457 15.334v9.351h-9.549a3.243 3.243 0 01-2.639-.976 4.233 4.233 0 01-.808-2.771v-5.6zm-9.518 4.817a1.37 1.37 0 00.259.976 1.223 1.223 0 00.87.252h4.912v-2.739h-6.04zm9.518-20.34v14.358h-3.478v-14.36z" transform="translate(-70.268 -474.609)"/><path id="패스_42444" data-name="패스 42444" class="cls-4" d="M185.959 499.483l-.732-11.807a2.033 2.033 0 00-.107-.456.308.308 0 00-.32-.2h-.092a.282.282 0 00-.305.2 2.7 2.7 0 00-.092.456l-.763 11.807h-3.356l.885-12.153a5.764 5.764 0 01.549-2.125 2.875 2.875 0 011.4-1.37v-5.762h-2.563V474.8h8.637v3.274h-2.563v5.762a2.9 2.9 0 011.373 1.37 5.764 5.764 0 01.549 2.125l.885 12.153zm2.654-16.435h1.587v-8.438h3.356v24.874H190.2v-13h-1.586zm9.183-8.438v24.874h-3.356v-24.875z" transform="translate(-129.796 -474.609)"/></g></g></g><g id="그룹_56364" data-name="그룹 56364"><g id="스마트팜-2" class="cls-3" transform="translate(4.756 231.799)"><g id="그룹_56347" data-name="그룹 56347" class="cls-3"><path id="패스_42429" data-name="패스 42429" class="cls-2" d="M297.154 257.215v-1.663h6.087v1.663zm4.135-2.883l-.839-7.293q-.03-.29-.213-.29h-.214q-.183 0-.213.29l-.87 7.293h-1.71l.93-7.567a1.987 1.987 0 01.511-1.228 1.758 1.758 0 011.32-.45h.29a1.683 1.683 0 011.289.45 2.109 2.109 0 01.511 1.228l1.037 7.567z" transform="translate(-297.154 -245.086)"/><path id="패스_42430" data-name="패스 42430" class="cls-2" d="M334.113 245.527h4.987v11.824h-2.884a3.525 3.525 0 01-.954-.114 1.409 1.409 0 01-.656-.381 1.652 1.652 0 01-.374-.709 4.125 4.125 0 01-.122-1.083zm1.739 9.444a.579.579 0 00.7.7h.793v-8.481h-1.5zm5.859-9.536v5.02h.885v1.663h-.885v5.37h-1.755v-12.052z" transform="translate(-326.058 -245.36)"/><path id="패스_42431" data-name="패스 42431" class="cls-2" d="M380.8 257.489v-1.663h6.728v1.663zm.153-12.053h6.164v1.678h-4.47v1.739h4.15v1.663h-4.15v.976a1.05 1.05 0 00.221.694.831.831 0 00.679.267h3.57v1.678h-3.814a2.329 2.329 0 01-1.724-.626 2.459 2.459 0 01-.626-1.816z" transform="translate(-362.571 -245.36)"/><path id="패스_42432" data-name="패스 42432" class="cls-2" d="M425.625 252.454H420.1v-1.632h.61v-3.662h-.641v-1.633h5.538v1.633h-.671v3.662h.687zm2.319.5v4.531h-5.111a1.759 1.759 0 01-1.327-.435 1.832 1.832 0 01-.412-1.3v-2.792zm-4.714-5.8h-.809v3.662h.809zm-.381 8.193q0 .351.122.442a.738.738 0 00.427.092h2.792v-1.321h-3.341zm5.1-9.917v2.9h.885v1.678h-.885v2.441h-1.759v-7.018z" transform="translate(-393.281 -245.36)"/></g></g><g id="혁신벨리-2" class="cls-3" transform="translate(4.086 246.467)"><g id="그룹_56348" data-name="그룹 56348" class="cls-3"><path id="패스_42433" data-name="패스 42433" class="cls-2" d="M294.084 314.476h5.492v.6h.869v-2.456h1.74v7.18h-1.74v-.885h-.9v-1.51h.9v-.824h-.9v-.5h-.519a2.939 2.939 0 01.145.48 2.466 2.466 0 01.053.511v.412a2.629 2.629 0 01-.175.976 2.068 2.068 0 01-.5.748 2.263 2.263 0 01-.755.473 2.629 2.629 0 01-.954.168 2.672 2.672 0 01-.969-.168 2.178 2.178 0 01-.748-.473 2.132 2.132 0 01-.488-.74 2.608 2.608 0 01-.175-.984v-.412a2.646 2.646 0 01.183-.992h-.565zm4.47-2.09v1.648h-3.448v-1.648zm1.968 7.918a1.768 1.768 0 011.289.381 1.694 1.694 0 01.374 1.22v2.762h-1.74v-2.151a.781.781 0 00-.114-.488q-.115-.137-.526-.137h-4.653V320.3zm-4.3-3.036q0 .976.626.976a.525.525 0 00.5-.252 1.472 1.472 0 00.145-.724v-.153a1.224 1.224 0 00-.145-.664.548.548 0 00-.5-.221.556.556 0 00-.481.2 1.2 1.2 0 00-.145.687z" transform="translate(-294.084 -312.386)"/><path id="패스_42434" data-name="패스 42434" class="cls-2" d="M338.522 320.637h-1.739l.885-5.935a1.325 1.325 0 01.542-.954 1.865 1.865 0 011.091-.313h.442a1.8 1.8 0 011.106.336 1.32 1.32 0 01.526.931l.87 5.935h-1.739l-.717-5.2q-.046-.32-.214-.32h-.107q-.168 0-.214.32zm.915 4.851q-1.892 0-1.892-1.8v-2.166h1.755v1.785a.649.649 0 00.13.473.709.709 0 00.481.122h3.219v-10.466h1.739v12.053z" transform="translate(-327.477 -313.207)"/><path id="패스_42435" data-name="패스 42435" class="cls-2" d="M386.206 319.829h-1.556v-2.411h-.717v.717a1.827 1.827 0 01-.343 1.228 1.364 1.364 0 01-1.076.389h-1.4a1.363 1.363 0 01-1.076-.389 1.827 1.827 0 01-.343-1.228v-4.7h1.74v1.77h.763v-1.77h1.739v2.3h.717v-2.3h1.556zm-5.2 2.411h5.538v-.519H381v-1.48h7.3v3.341h-5.538v.214a.229.229 0 00.259.259h5.431v1.5h-6.042a1.439 1.439 0 01-1.037-.351 1.392 1.392 0 01-.366-1.053zm1.19-5.477h-.763v1.068q0 .26.068.313a.362.362 0 00.221.053h.183a.358.358 0 00.229-.053q.061-.053.061-.313zm6.1-3.326v6.393h-1.587v-6.393z" transform="translate(-361.033 -313.207)"/><path id="패스_42436" data-name="패스 42436" class="cls-2" d="M427.437 325.367a2.121 2.121 0 01-1.625-.526 2.562 2.562 0 01-.481-1.747v-4.486h3.006v-3.4h-2.914v-1.663h4.669v6.637h-3.021v2.762a.832.832 0 00.16.58.726.726 0 00.542.168h2.548v1.678zm5.8-11.931v12.053h-1.757v-12.053z" transform="translate(-396.726 -313.207)"/></g></g><g id="실증단지-2" class="cls-3" transform="translate(42.695 246.696)"><g id="그룹_56349" data-name="그룹 56349" class="cls-3"><path id="패스_42437" data-name="패스 42437" class="cls-2" d="M472.963 319.722h-1.739l.885-5.019a1.384 1.384 0 01.549-.954 1.829 1.829 0 011.083-.313h.443a1.733 1.733 0 011.091.336 1.452 1.452 0 01.542.931l.87 5.019h-1.739l-.717-4.3a1.013 1.013 0 00-.076-.229.147.147 0 00-.137-.092h-.107q-.168 0-.214.321zm-.839 2.518h5.431v-.519h-5.431v-1.48h7.171v3.341h-5.431v.214q0 .26.275.259h5.324v1.5h-5.935a1.434 1.434 0 01-1.045-.351 1.41 1.41 0 01-.359-1.053zm7.171-8.8v6.286h-1.74v-6.286z" transform="translate(-471.224 -313.436)"/><path id="패스_42438" data-name="패스 42438" class="cls-2" d="M522.341 319.638v1.662h-8.208v-1.663zm-1.968-4.2a1.939 1.939 0 01.13.244l.114.259 1.312 3.113h-1.907l-1.251-3.113a.678.678 0 00-.168-.274.4.4 0 00-.26-.076h-.214q-.275 0-.412.351l-1.388 3.113h-1.785l1.358-3.113.114-.259a1.878 1.878 0 01.13-.244h-1.373v-1.587h6.957v1.587zm-3.57 10.374a2.488 2.488 0 01-1.6-.511 1.755 1.755 0 01-.641-1.457v-.137a1.713 1.713 0 01.641-1.442 2.539 2.539 0 011.6-.5h2.823a2.766 2.766 0 01.847.129 2.3 2.3 0 01.717.374 1.746 1.746 0 01.679 1.434v.137a1.8 1.8 0 01-.679 1.457 2.211 2.211 0 01-.717.381 2.759 2.759 0 01-.847.129zm-.5-1.983q0 .382.656.381h2.533q.656 0 .656-.381v-.092q0-.366-.656-.366h-2.533q-.656 0-.656.366z" transform="translate(-504.781 -313.764)"/><path id="패스_42439" data-name="패스 42439" class="cls-2" d="M557.112 313.527h4.988v1.663h-3.25v2.838a.87.87 0 00.153.565.686.686 0 00.549.183h2.624v1.663h-2.96a3.523 3.523 0 01-.954-.114 1.438 1.438 0 01-.656-.374 1.593 1.593 0 01-.374-.7 4.119 4.119 0 01-.122-1.083zm2.38 11.961a1.956 1.956 0 01-1.35-.4 1.706 1.706 0 01-.435-1.312v-2.319h1.739v1.922a.561.561 0 00.114.412.681.681 0 00.45.107h2.9v-10.462h1.755v3.764h.885v1.663h-.885v6.621z" transform="translate(-538.392 -313.436)"/><path id="패스_42440" data-name="패스 42440" class="cls-2" d="M602.6 325.489l-.626-5.965a.55.55 0 00-.076-.221.2.2 0 00-.183-.1h-.061a.184.184 0 00-.175.1.619.619 0 00-.069.221l-.717 5.965h-1.724l.763-6.3a2.435 2.435 0 01.336-.992 1.386 1.386 0 01.763-.58v-2.5h-1.661v-1.587h5.065v1.587h-1.663v2.533a1.374 1.374 0 01.725.565 2.552 2.552 0 01.344.976l.824 6.3zm4.44-12.053v12.053h-1.74v-12.053z" transform="translate(-571.129 -313.436)"/></g></g><g id="그룹_56363" data-name="그룹 56363"><path id="사각형_22514" data-name="사각형 22514" class="cls-2" transform="translate(42.264 243.006)" d="M0 0h36.169v.921H0z"/><path id="사각형_22514-2" data-name="사각형 22514" transform="translate(42.264 242.084)" d="M0 0h36.169v.921H0z" opacity=".2" fill="#39454d"/><g id="마스크_그룹_450" data-name="마스크 그룹 450" clip-path="url(#clip-path)"><g id="그룹_56358" data-name="그룹 56358" transform="translate(-1505.682 67.723)"><path id="패스_41524" data-name="패스 41524" class="cls-7" d="M204.122 433.674a2.013 2.013 0 01-2.011 2.005c-1.111 0-3.519-.9-3.519-2.011s2.408-2.011 3.519-2.011a2.011 2.011 0 012.011 2.011z" transform="translate(1359.911 -267.321)"/><g id="그룹_55474" data-name="그룹 55474" transform="translate(1565.549 167.861)"><path id="패스_41538" data-name="패스 41538" class="cls-2" d="M213.111 446.551c-.278 0-.5-.11-.5-.246v-7.39c0-.136.225-.246.5-.246s.5.11.5.246v7.39c.002.136-.222.246-.5.246z" transform="translate(-212.608 -438.668)"/></g><g id="그룹_55475" data-name="그룹 55475" transform="translate(1565.549 169.921)"><path id="패스_41539" data-name="패스 41539" class="cls-2" d="M213.111 447.694a.5.5 0 01-.5-.5 2.516 2.516 0 012.513-2.513.5.5 0 110 1.005 1.51 1.51 0 00-1.508 1.508.5.5 0 01-.505.5z" transform="translate(-212.608 -444.678)"/></g><g id="그룹_56361" data-name="그룹 56361" transform="rotate(-9 1838.1 -9866.201)"><path id="패스_41523" data-name="패스 41523" class="cls-7" d="M0 2.016v-.005A2.01 2.01 0 012.011 0C3.121 0 5.53.9 5.53 2.011S3.121 4.022 2.011 4.022A2.012 2.012 0 010 2.016z" transform="rotate(-19 7.607 -.693)"/><g id="그룹_55476" data-name="그룹 55476" transform="rotate(-19 6.358 1.064)"><path id="패스_41540" data-name="패스 41540" class="cls-2" d="M2.513 5.027a2.513 2.513 0 110-5.027c1.229 0 4.024.95 4.024 2.513S3.742 5.027 2.513 5.027zm0-4.022a1.508 1.508 0 100 3.016c1.093 0 3.018-.872 3.018-1.508S3.606 1.005 2.513 1.005z"/></g></g><g id="그룹_55477" data-name="그룹 55477" transform="translate(1563.522 165.85)"><path id="패스_41541" data-name="패스 41541" class="cls-2" d="M211.088 437.684a.5.5 0 01-.5-.5 1.51 1.51 0 00-1.508-1.508.5.5 0 110-1.005 2.516 2.516 0 012.513 2.513.5.5 0 01-.505.5z" transform="translate(-208.575 -434.668)"/></g><path id="패스_41542" data-name="패스 41542" class="cls-2" d="M201.614 435.685c-1.229 0-4.023-.95-4.023-2.513s2.794-2.513 4.023-2.513a2.513 2.513 0 110 5.027zm0-4.022c-1.092 0-3.017.872-3.017 1.508s1.925 1.508 3.017 1.508a1.508 1.508 0 100-3.016z" transform="translate(1360.409 -266.824)"/><g id="그룹_56362" data-name="그룹 56362" transform="rotate(25.97 439.28 3486.111)"><path id="패스_41194" data-name="패스 41194" class="cls-2" d="M3.066 1.683a.583.583 0 01-.414-.171 1.172 1.172 0 00-1.652 0A.585.585 0 01.172.685a2.34 2.34 0 013.308 0 .585.585 0 01-.413 1z" transform="translate(2.482 3.507)"/><path id="패스_41195" data-name="패스 41195" class="cls-2" d="M5.547 2.2a.583.583 0 01-.413-.171A2.921 2.921 0 001 2.027.585.585 0 01.172 1.2a4.091 4.091 0 015.789 0 .585.585 0 01-.414 1z" transform="translate(1.241 1.753)"/><path id="패스_41196" data-name="패스 41196" class="cls-2" d="M8.03 2.709a.583.583 0 01-.413-.171A4.685 4.685 0 001 2.537a.585.585 0 01-.828-.827 5.857 5.857 0 018.272 0 .585.585 0 01-.414 1z" transform="translate(0 .001)"/></g></g></g></g></g></g></g></svg>