<svg xmlns="http://www.w3.org/2000/svg" width="612" height="596" viewBox="0 101.5 612 596"><g fill="#FFF"><path d="M76.5 644.625a19.13 19.13 0 01-13.579-5.546c-7.499-7.438-7.549-19.548-.11-27.047l.11-.111 459-459c7.499-7.5 19.658-7.5 27.157 0 7.5 7.499 7.5 19.658 0 27.157l-459 459a19.124 19.124 0 01-13.578 5.547z"/><path d="M535.5 644.625a19.13 19.13 0 01-13.579-5.546l-459-459c-7.499-7.499-7.499-19.658 0-27.157 7.499-7.5 19.658-7.5 27.157 0l459 459c7.499 7.438 7.549 19.548.111 27.047l-.111.111a19.132 19.132 0 01-13.578 5.545z"/></g></svg>