<svg id="ico_login_n" xmlns="http://www.w3.org/2000/svg" width="12.001" height="12"><defs><style>.cls-2{fill:#fff}</style></defs><g id="ico_logout" transform="translate(0 -1)"><g id="그룹_55844" data-name="그룹 55844" transform="translate(1 1)"><path id="패스_41793" data-name="패스 41793" class="cls-2" d="M8.816 11.8H2.3V2.2h6.516v2.348a.054.054 0 00.056.052h1.19a.054.054 0 00.056-.052V1.6a.627.627 0 00-.65-.6H1.651A.627.627 0 001 1.6v10.8a.627.627 0 00.651.6h7.817a.627.627 0 00.651-.6V9.452a.054.054 0 00-.056-.052h-1.19a.054.054 0 00-.056.052V11.8z" transform="translate(-1 -1)"/></g><path id="패스_41794" data-name="패스 41794" class="cls-2" d="M212.757 156.672l-2.467 2.467c-.087.087-.157.058-.157-.065v-1.129h-5.02a.111.111 0 01-.111-.111v-2.481a.111.111 0 01.111-.111h5.02v-1.129c0-.123.071-.152.157-.065l2.467 2.467a.111.111 0 010 .157z" transform="rotate(180 108.501 81.797)"/></g></svg>