<svg xmlns="http://www.w3.org/2000/svg" width="12" height="12"><defs><style>.cls-1{fill:#69696e}</style></defs><g id="ico_logout" transform="translate(-1 -1)"><g id="그룹_55844" transform="translate(1 1)"><path id="패스_41793" d="M7.948 11.8h-5.79V2.2h5.79v2.348A.051.051 0 008 4.6h1.056a.051.051 0 00.05-.052V1.6a.59.59 0 00-.579-.6H1.579A.59.59 0 001 1.6v10.8a.59.59 0 00.579.6h6.948a.59.59 0 00.579-.6V9.452a.051.051 0 00-.05-.052H8a.051.051 0 00-.05.052V11.8z" class="cls-1" transform="translate(-1 -1)"/></g><path id="패스_41794" d="M212.757 156.672l-2.467 2.467c-.087.087-.157.058-.157-.065v-1.129h-5.02a.111.111 0 01-.111-.111v-2.481a.111.111 0 01.111-.111h5.02v-1.129c0-.123.071-.152.157-.065l2.467 2.467a.111.111 0 010 .157z" class="cls-1" transform="translate(-199.789 -149.594)"/></g></svg>