<svg xmlns="http://www.w3.org/2000/svg" width="24" height="24"><rect width="24" height="24" fill="#00c300" rx="6"/><path fill="#fff" stroke="#fff" stroke-width=".2" d="M3.545 10.387l.967-.335v2.2l-.967-.3zM5.257 5.81a15.159 15.159 0 008.409 3.494v3.721c-1.339.037-4.577.521-8.409 3.5V5.81zm9.19 2.456a.08.08 0 01.074-.074h3.535a.08.08 0 01.074.074v5.8a.08.08 0 01-.074.074h-3.534a.08.08 0 01-.074-.074zm1.86 10.53h-1.339l.893-3.907h1.34zm2.6-9.451h.446a.55.55 0 01.558.558v2.53a.58.58 0 01-.558.558h-.446zm-15.846 3.2l1.488.484v4.275a.372.372 0 00.6.3 15.211 15.211 0 018.558-3.8v.3a.826.826 0 00.819.819h.558l-.967 4.2a.355.355 0 00.372.446h2.112a.362.362 0 00.372-.3l1-4.353h.074a.826.826 0 00.819-.819v-.335h.446a1.305 1.305 0 001.3-1.3v-2.53a1.323 1.323 0 00-1.3-1.3h-.446v-.328a.826.826 0 00-.819-.819h-3.525a.826.826 0 00-.821.819v.3a15.211 15.211 0 01-8.558-3.8.359.359 0 00-.633.223v4.242l-1.488.484a.493.493 0 00-.221.374v2.084a.357.357 0 00.26.334z"/><path fill="#fff" d="M14 8h4.5v6.5H14z" opacity=".4"/></svg>