<svg xmlns="http://www.w3.org/2000/svg" width="110" height="110"><defs><style>.cls-3{fill:#fff}.cls-4{fill:#78c5ef}.cls-5{fill:#00c300}</style></defs><g id="img_application" transform="translate(-729 -625)"><circle id="타원_838" cx="55" cy="55" r="55" fill="#f2f2f2" transform="translate(729 625)"/><g id="board" transform="translate(741.967 638.796)"><path id="패스_33278" fill="#1b89e5" d="M3.9.035L43.356 0a3.856 3.856 0 013.85 3.872l-.044 49.81a3.873 3.873 0 01-3.862 3.879L3.85 57.6A3.856 3.856 0 010 53.724L.044 3.915A3.873 3.873 0 013.9.035z" transform="rotate(-8.5 128.57 -71.66)"/><path id="패스_33279" d="M.046.036L40.052 0l-.046 51.232L0 51.268z" class="cls-3" transform="rotate(-8.519 126.659 -95.61)"/><path id="패스_33280" d="M.773.02L23.447 0a.776.776 0 010 1.553l-22.676.02A.776.776 0 01.773.02z" class="cls-4" transform="rotate(-8.519 286.989 -181.518)"/><path id="패스_33281" d="M.773.026L29.193 0a.776.776 0 010 1.553L.771 1.579a.776.776 0 010-1.553z" class="cls-4" transform="rotate(-8.519 327.68 -144.978)"/><path id="패스_33282" d="M.773.024L27.024 0a.776.776 0 010 1.553L.771 1.577a.776.776 0 010-1.553z" class="cls-4" transform="rotate(-8.519 365.506 -147.02)"/><path id="패스_33283" d="M.773.021L23.657 0a.776.776 0 010 1.553L.771 1.574a.776.776 0 010-1.553z" class="cls-4" transform="rotate(-8.519 403.333 -149.064)"/><path id="패스_33284" d="M.773 0h2.016a.776.776 0 010 1.553H.773A.776.776 0 01.773 0z" class="cls-4" transform="rotate(-8.519 390.047 -327.058)"/><path id="패스_33275" d="M98.593 16.677l-1.939-.66a3.027 3.027 0 00-3.843 1.911L82.2 49.46l1.189 6.164a1.064 1.064 0 001.754.6l4.666-4.171L96.1 33.37l.537.182a1.4 1.4 0 001.78-.885l3.267-9.709a4.962 4.962 0 00-3.091-6.281z" class="cls-5" transform="translate(-27.907 -1.816)"/><path id="패스_33276" fill="#0e9f0e" d="M104.882 37.463a.6.6 0 01-.49-.253.609.609 0 01-.081-.548L108.2 25.11a.6.6 0 111.141.389l-3.888 11.552a.6.6 0 01-.571.412z" transform="translate(-36.693 -5.302)"/><path id="패스_33277" fill="#3c3854" d="M2.771.02L25.533 0A2.772 2.772 0 0128.3 2.784v1.6a1.059 1.059 0 01-1.055 1.061l-26.192.024A1.055 1.055 0 010 4.41v-1.6A2.784 2.784 0 012.771.02z" transform="rotate(171.5 24.4 10.593)"/><g id="Layer_2" transform="translate(30.724 21.742)"><g id="Layer_1"><ellipse id="타원_893" cx="6.633" cy="6.661" class="cls-5" rx="6.633" ry="6.661" transform="translate(.865 .963)"/><path id="패스_33260" d="M6.253 0h-.6C4.444 0 1.556.176.548 1.786a2.954 2.954 0 00-.084 2.677 12.321 12.321 0 012.527-2.144.307.307 0 01.416.085A9.044 9.044 0 00.024 6.34a.474.474 0 000 .3.434.434 0 00.434.315h.066a.6.6 0 00.555-.563 3.4 3.4 0 01.338-1.142 5.58 5.58 0 00.911.079c1.49 0 4-.66 4.119-5.062V.212A.218.218 0 006.253 0z" class="cls-3" transform="translate(4.496 4.457)"/><path id="사각형_21392" fill="none" d="M0 0h14.462v14.522H0z"/></g></g></g></g></svg>