<svg id="ico_logout_n" xmlns="http://www.w3.org/2000/svg" width="16" height="16"><defs><style>.cls-1{fill:#69696e}</style></defs><g id="그룹_55844" data-name="그룹 55844"><path id="패스_41793" data-name="패스 41793" class="cls-1" d="M11.376 15.4H2.729V2.6h8.647v3.131a.072.072 0 00.075.069h1.58a.072.072 0 00.075-.069V1.8a.834.834 0 00-.865-.8H1.865A.834.834 0 001 1.8v14.4a.834.834 0 00.865.8h10.376a.834.834 0 00.865-.8v-3.931a.072.072 0 00-.075-.069h-1.58a.072.072 0 00-.075.069V15.4z" transform="translate(-1 -1)"/></g><path id="패스_41794" data-name="패스 41794" class="cls-1" d="M212.757 156.672l-2.467 2.467c-.087.087-.157.058-.157-.065v-1.129h-5.02a.111.111 0 01-.111-.111v-2.481a.111.111 0 01.111-.111h5.02v-1.129c0-.123.071-.152.157-.065l2.467 2.467a.111.111 0 010 .157z" transform="translate(-196.789 -148.594)"/></svg>