<svg xmlns="http://www.w3.org/2000/svg" width="110" height="110"><defs><style>.cls-6{fill:#fff}.cls-9{fill:#ed4850}</style></defs><g id="img_inquire" transform="translate(-1167 -625)"><circle id="타원_841" cx="55" cy="55" r="55" fill="#f2f2f2" transform="translate(1167 625)"/><g id="calling_emergency" transform="translate(1178.469 640.366)"><path id="패스_33245" fill="#00c300" d="M95.432 39.457a.857.857 0 00.994-.692l.038-.21a1.891 1.891 0 012.2-1.526l1.408.253a1.89 1.89 0 011.526 2.2l-.038.214a.857.857 0 00.691 1l.214.038a1.89 1.89 0 011.525 2.2l-.253 1.4a1.891 1.891 0 01-2.2 1.526l-.214-.038a.855.855 0 00-.994.691l-.039.214a1.889 1.889 0 01-2.19 1.516l-1.408-.253a1.891 1.891 0 01-1.526-2.2l.038-.21a.857.857 0 00-.691-1l-.211-.038a1.891 1.891 0 01-1.526-2.2l.254-1.408a1.893 1.893 0 012.2-1.528z" transform="translate(-26.702 -10.408)"/><path id="패스_33246" fill="#42ef42" d="M86.739 57.38a.483.483 0 00.483-.483v-.121a1.065 1.065 0 011.065-1.065h.8a1.065 1.065 0 011.065 1.065v.124a.483.483 0 00.483.483h.122a1.065 1.065 0 011.065 1.065v.8a1.065 1.065 0 01-1.065 1.065h-.122a.483.483 0 00-.483.483v.122a1.065 1.065 0 01-1.065 1.065h-.8a1.065 1.065 0 01-1.065-1.065V60.8a.483.483 0 00-.483-.483h-.121a1.065 1.065 0 01-1.065-1.065v-.806a1.067 1.067 0 011.07-1.067z" transform="translate(-24.195 -16.953)"/><rect id="사각형_21384" width="34.941" height="51.482" fill="#1b89e5" rx="6" transform="rotate(12.58 -19.03 128.939)"/><rect id="사각형_21385" width="29.214" height="45.929" fill="#78c5ef" rx="3" transform="rotate(12.546 -33.18 140.437)"/><path id="패스_33247" d="M46.38 49.444a3.044 3.044 0 01.195-3.083.685.685 0 01.844-.214 1.341 1.341 0 001.764-.737 2.644 2.644 0 00-.125-1.559c-1.347-3.263-7.7.637-5.209 6.642s9.739 4.264 8.379 1.006a2.642 2.642 0 00-1.012-1.192 1.34 1.34 0 00-1.767.727.687.687 0 01-.75.448 3.043 3.043 0 01-2.319-2.038z" class="cls-6" transform="translate(-9.412 -12.39)"/><path id="패스_33248" d="M57.98 46.652a1.066 1.066 0 01.715-1.293c1.206-.379 3.167-.92 3.647-.613.7.46.917 2.511.354 3.022s-2.557.39-3.65.265a1.059 1.059 0 01-.909-.79z" class="cls-6" transform="translate(-14.543 -13.089)"/><path id="패스_33249" d="M54.714 38.966a.967.967 0 01-.26-1.3c.6-.96 1.634-2.474 2.138-2.533.748-.1 2.09 1.182 2 1.857-.094.694-1.528 1.754-2.338 2.3a.97.97 0 01-1.091-.014z" class="cls-6" transform="translate(-13.272 -9.757)"/><path id="패스_33250" fill="#3c3854" d="M0 0h11.9a3.953 3.953 0 01-3.953 3.953H3.953A3.953 3.953 0 010 0z" transform="rotate(12.546 -37.437 179.446)"/><path id="패스_33251" fill="#ff977b" d="M67.545 85.079c-1.567-5.657-4.287-7.259-4.857-7.619a6.366 6.366 0 00-2.923-.849A3.412 3.412 0 0058.5 75.4a5 5 0 00-4.073-.32 12.928 12.928 0 00-1.192.609c-.686-3.187-1.672-8-1.884-10.4-.155-1.724-2.288-2.571-3.912-1.559-4.1 2.555-.765 14.452-.645 18.184a5.545 5.545 0 01-.325 2.347c-.743 1.777-2.654 1.373-4.432.637-2.338-.974-6.768-2.982-8.084.991a3.141 3.141 0 00-.167 1.36c.292 2.962 5.25 4.31 8.236 6.977 3.159 2.815 10.833 7.222 17.8 4.573 6.511-2.475 9.204-8.352 7.723-13.72z" transform="translate(-6.076 -19.564)"/><path id="패스_33252" d="M64.08 85.814a.65.65 0 01-.632-.5s-.3-1.3-.692-3.13a.65.65 0 011.27-.272 213.8 213.8 0 00.688 3.109.65.65 0 01-.487.779.664.664 0 01-.147.014z" class="cls-9" transform="translate(-16.223 -25.941)"/><path id="패스_33253" d="M73.855 85.836h-.027a.65.65 0 01-.623-.675 2.484 2.484 0 00-.328-1.38.649.649 0 111.123-.655 3.767 3.767 0 01.5 2.089.65.65 0 01-.645.621z" class="cls-9" transform="translate(-19.735 -26.429)"/></g></g></svg>