<svg xmlns="http://www.w3.org/2000/svg" width="110" height="110"><defs><style>.cls-2{fill:#ff977b}.cls-3{fill:#3c3854}.cls-4{fill:#0e9f0e}.cls-8{fill:#fff}.cls-10{fill:#332c44}.cls-11{fill:#ed4850}</style></defs><g id="img_advance" transform="translate(-1049 -625)"><circle id="타원_840" cx="55" cy="55" r="55" fill="#f2f2f2" transform="translate(1049 625)"/><g id="informative" transform="translate(1065.023 638.681)"><path id="패스_33224" d="M45.515 57.289a2.244 2.244 0 01-.88 1.534 2.562 2.562 0 00-.83 1.515 1.147 1.147 0 00-.005.327c.038.353.069.73.076 1.119a3.592 3.592 0 01-1.019 3.074c-1.779 1.4-5.859 0-6.978 1.056a8.936 8.936 0 00-1.8 2.935A25.189 25.189 0 0029.19 65.8a97.113 97.113 0 011.189-9.911c1.6-7.154 8.881-8.514 11.64-9.118h.006c1.716 3.621.7 5.658 1.283 7.419s2.15 1.767 2.207 3.099z" class="cls-2" transform="translate(-10.777 -16.236)"/><path id="패스_33225" d="M92.337 67.628s-5.076 2.567-7.16 2.255c1.036-2.161-.347-5.076-1.184-5.476-1.49-.718-3.627.43-5.229-.483-1.213-.713-1.4-2.379-1.419-3.78v-.589a1.113 1.113 0 00-.047-.312 1.382 1.382 0 00-.112-.253 4.763 4.763 0 00-1.266-1.213c-.436-.318-.924-.654-.93-1.3 0-.942 1.1-1.1 1.808-2.95.453-1.184.006-1.407-.218-2.956v-.006a11.96 11.96 0 01.294-3c5.612.559 9.533 2.061 12.66 11.153l1.678 6.43a25.254 25.254 0 001.125 2.485z" class="cls-2" transform="translate(-29.608 -16.562)"/><path id="패스_33226" d="M99.445 44.392c1.553 2.867 4.387 2.314 4.363 6.536-.019 3.282-5.922 7.632-11.272 8.091-.692.059-1.4.1-2.1.113-4.495.1-8.744-.912-7.846-5.444 1.038-5.237-.88-8.244-6.494-8.8-.1-.012-.2-.025-.294-.044-3.13-.547-3.011-4.608-2.256-5.834 1.32-2.143 4.946-4.582 8.538-5.092 13.853-1.96 15.796 7.589 17.361 10.474z" class="cls-3" transform="translate(-28.831 -10.845)"/><path id="패스_33227" d="M61.827 90.492s.962-2.527 1.742-3.093c1.452-1.043 3.489-.094 4.582 2.754s-.478 4.946-2.546 6.424A34 34 0 0061 99.807l-.314-.147a10.482 10.482 0 01-3.028-3.06c.723-.824 1.629-1.7 1.61-2.322-.038-.975-.059-3.338-.081-5.086-.006-.635 0-1.3.628-1.452 1.085-.259 1.849 1.274 2.012 2.752z" class="cls-2" transform="translate(-22.482 -32.773)"/><path id="패스_33228" d="M57.646 105.492a19.064 19.064 0 01-3.671-3.728l-.006-.006c-.613.388-5.67 4.282-5.67 4.282l3.294 6.305a53.955 53.955 0 006.928-6.413 5.674 5.674 0 01-.874-.44z" class="cls-4" transform="translate(-18.634 -38.846)"/><path id="패스_33229" fill="#00c300" d="M39.125 103.529a1.171 1.171 0 01-1.178 1.278l-3.215-.006h-1.207l-9.9-.029h-1.182l-6.042-.006a1.178 1.178 0 01-1.172-1.154c-.024-1.4-.035-3.792.106-5.694a38.419 38.419 0 014.746-14.645 17.249 17.249 0 013.362-4.193 25.164 25.164 0 014.887 3.056 19.855 19.855 0 012.292 2.264 35.815 35.815 0 014.658 7.52c1.961 4.019 3.563 8.523 3.845 11.609z" transform="translate(-5.032 -29.522)"/><path id="패스_33230" fill="#322f4c" d="M26.31 72.792c-.718-.655-1.509-1.407-2.383-2.168a.819.819 0 01-.141-1.083.834.834 0 01.554-.342c1.875-.32 3.76-1.552 6-4.114a1.635 1.635 0 00.428.538 2.6 2.6 0 00.621.4.569.569 0 01.321.522c-.1 3.257-3 5.061-4.31 6.255a.8.8 0 01-1.086 0z" transform="translate(-8.497 -23.768)"/><path id="패스_33231" fill="#42a4f6" d="M53.855 25.186c.051.34 3.521-2.263 3.521-2.263h3.288a7.35 7.35 0 007.268-7.33c.006-.327.006-.654 0-.987a7.348 7.348 0 00-7.268-7.323 817.52 817.52 0 00-5.425 0 7.339 7.339 0 00-7.261 7.323v.987a7.353 7.353 0 006.413 7.273 9.475 9.475 0 00-.536 2.32z" transform="translate(-18.502)"/><path id="패스_33232" d="M23.476 83.272a17.269 17.269 0 013.363-4.193 25.206 25.206 0 014.89 3.055 20.035 20.035 0 012.29 2.266 35.844 35.844 0 014.658 7.518s-7.7-7.929-14.5-8.578z" class="cls-4" transform="translate(-8.428 -29.521)"/><path id="패스_33233" d="M31.55 37.555a6.791 6.791 0 01-.308 3.363 16.054 16.054 0 01-5.653 7.273 2.667 2.667 0 00-4.055 2.282 2.619 2.619 0 00.546 1.609c-.251.321-.5.616-.735.893-2.376 2.722-4.482 3.571-6.477 3.791a27.077 27.077 0 01-3.848.006c-2.464-.059-7.2-2.049-7.99-8.153-.478-3.651 2.3-8.091 7.6-10.172 4.834-1.9 7.971-5.9 13.472-5.9 4.43.004 6.998 2.469 7.448 5.008z" class="cls-3" transform="translate(0 -10.389)"/><path id="패스_33234" d="M70.677 19.659a.544.544 0 11-.486.267.544.544 0 01.486-.267z" class="cls-8" transform="translate(-27.604 -5.09)"/><path id="패스_33235" d="M65.17 20.449a.77.77 0 11-.773.766.77.77 0 01.773-.766z" class="cls-8" transform="translate(-25.253 -5.415)"/><circle id="타원_892" cx="1.138" cy="1.138" r="1.138" class="cls-8" transform="translate(35.065 14.192)"/><path id="패스_33236" fill="#1b89e5" d="M95.746 105.82H83.584a1.181 1.181 0 01-1.17-1.054 7.373 7.373 0 00-.792-2.715 10.158 10.158 0 01-1.93-3.256 6.824 6.824 0 01.754-4.834c1.2-2.577 5.417-7.588 6.6-10.065 2.018.308 6.865-2.1 7.148-2.244a.018.018 0 01.012-.006c5.888 7.635 3.672 19 2.685 23.271a1.174 1.174 0 01-1.145.903z" transform="translate(-31.477 -30.577)"/><path id="패스_33237" d="M90.03 111.194c1.347-6.108 2.525-15.222 6.232-16.383a2.39 2.39 0 013.038 1.95v.037c.924 4.451-2.163 12.906-2.364 14.4z" class="cls-2" transform="translate(-35.792 -35.95)"/><path id="패스_33238" d="M52.869 71.124h-.009a1.35 1.35 0 01-1.807-1.214v-.428a10.67 10.67 0 001.741.195z" class="cls-8" transform="translate(-19.766 -25.576)"/><rect id="사각형_21382" width="1.382" height="2.318" class="cls-10" rx=".691" transform="translate(30.072 36.438)"/><rect id="사각형_21383" width="1.388" height="1.98" class="cls-10" rx=".694" transform="translate(48.101 35.86)"/><path id="패스_33239" d="M33.092 98.191a.607.607 0 01-.665.512 2.514 2.514 0 00-2.244.919c-2.055 2.226-2.862 7.755-1.837 12.6a.505.505 0 01.012.13h-1.184c-1.083-5.229-.165-11.023 2.143-13.52a3.681 3.681 0 013.262-1.3.594.594 0 01.512.66z" class="cls-4" transform="translate(-9.762 -37.098)"/><path id="패스_33240" d="M44.564 113.373h-1.207a47.068 47.068 0 01-.306-1.366c-.6-2.744-1.843-8.462-3.786-11.112a.589.589 0 11.948-.695c2.09 2.85 3.327 8.515 3.986 11.553.147.683.265 1.213.342 1.46a.5.5 0 01.024.159z" class="cls-4" transform="translate(-14.864 -38.094)"/><path id="패스_33241" d="M38.567 63.191a.589.589 0 01-.554-.389s-.112-.271-.3-.271a.589.589 0 110-1.178 1.555 1.555 0 011.408 1.047.589.589 0 01-.554.79z" class="cls-11" transform="translate(-14.04 -22.233)"/><path id="패스_33242" d="M80.657 67.667a4.127 4.127 0 01-1.525.283c-.112 0-.194-.006-.253-.006v-.589a1.113 1.113 0 00-.047-.312 1.382 1.382 0 00-.112-.253.57.57 0 01.224-.024 2.97 2.97 0 001.266-.188.58.58 0 01.766.318.589.589 0 01-.318.771z" class="cls-11" transform="translate(-31.142 -24.362)"/><path id="패스_33243" d="M49.841 60.032c-.4 0-1.06-.195-1.632-1.267a8.121 8.121 0 01-.523-5.548c.4-1.279 1.1-1.531 1.48-1.566 1.385-.131 2.3 1.908 2.5 3.989a7.38 7.38 0 01-.228 2.82c-.4 1.279-1.1 1.531-1.479 1.566a1.15 1.15 0 01-.118.006zm-.555-7.209h-.011c-.078.008-.294.2-.467.747a6.984 6.984 0 00.438 4.638c.271.505.525.656.6.648s.294-.2.467-.747a6.3 6.3 0 00.177-2.355c-.182-1.936-.925-2.93-1.205-2.93z" class="cls-8" transform="translate(-18.273 -18.242)"/><path id="패스_33244" d="M65.748 94.29a.589.589 0 01-.482-.25 3.11 3.11 0 00-1.16-.966.589.589 0 11.391-1.108 4.181 4.181 0 011.732 1.4.589.589 0 01-.481.928z" class="cls-11" transform="translate(-24.957 -34.801)"/></g></g></svg>